<svg xmlns="http://www.w3.org/2000/svg" version="1.1" xmlns:xlink="http://www.w3.org/1999/xlink" xmlns:svgjs="http://svgjs.dev/svgjs" width="100%" height="100%" preserveAspectRatio="none" viewBox="0 0 3840 2160">
    <g mask="url(&quot;#SvgjsMask7100&quot;)" fill="none">
        <rect width="3840" height="2160" x="0" y="0" fill="url(&quot;#SvgjsLinearGradient7101&quot;)"></rect>
        <path d="M134.34 1303.06L246.06 1367.56L246.06 1496.56L134.34 1561.06L22.62 1496.56L22.62 1367.56zM22.62 1496.56L134.34 1561.06L134.34 1690.06L22.62 1754.56L-89.1 1690.06L-89.1 1561.06zM246.06 -51.44L357.78 13.06L357.78 142.06L246.06 206.56L134.34 142.06L134.34 13.06zM469.5 -51.44L581.22 13.06L581.22 142.06L469.5 206.56L357.78 142.06L357.78 13.06zM469.5 722.56L581.22 787.06L581.22 916.06L469.5 980.56L357.78 916.06L357.78 787.06zM581.22 916.06L692.94 980.56L692.94 1109.56L581.22 1174.06L469.5 1109.56L469.5 980.56zM692.94 1109.56L804.66 1174.06L804.66 1303.06L692.94 1367.56L581.22 1303.06L581.22 1174.06zM916.38 -51.44L1028.1 13.06L1028.1 142.06L916.38 206.56L804.66 142.06L804.66 13.06zM1028.1 1303.06L1139.82 1367.56L1139.82 1496.56L1028.1 1561.06L916.38 1496.56L916.38 1367.56zM916.38 1883.56L1028.1 1948.06L1028.1 2077.06L916.38 2141.56L804.66 2077.06L804.66 1948.06zM1028.1 2077.06L1139.82 2141.56L1139.82 2270.56L1028.1 2335.06L916.38 2270.56L916.38 2141.56zM1251.54 529.06L1363.27 593.56L1363.27 722.56L1251.54 787.06L1139.82 722.56L1139.82 593.56zM1251.54 2077.06L1363.27 2141.56L1363.27 2270.56L1251.54 2335.06L1139.82 2270.56L1139.82 2141.56zM1363.27 -51.44L1474.99 13.06L1474.99 142.06L1363.27 206.56L1251.54 142.06L1251.54 13.06zM1586.71 -51.44L1698.43 13.06L1698.43 142.06L1586.71 206.56L1474.99 142.06L1474.99 13.06zM1698.43 916.06L1810.15 980.56L1810.15 1109.56L1698.43 1174.06L1586.71 1109.56L1586.71 980.56zM1586.71 1496.56L1698.43 1561.06L1698.43 1690.06L1586.71 1754.56L1474.99 1690.06L1474.99 1561.06zM1698.43 1690.06L1810.15 1754.56L1810.15 1883.56L1698.43 1948.06L1586.71 1883.56L1586.71 1754.56zM1586.71 1883.56L1698.43 1948.06L1698.43 2077.06L1586.71 2141.56L1474.99 2077.06L1474.99 1948.06zM1698.43 2077.06L1810.15 2141.56L1810.15 2270.56L1698.43 2335.06L1586.71 2270.56L1586.71 2141.56zM1810.15 722.56L1921.87 787.06L1921.87 916.06L1810.15 980.56L1698.43 916.06L1698.43 787.06zM1810.15 1883.56L1921.87 1948.06L1921.87 2077.06L1810.15 2141.56L1698.43 2077.06L1698.43 1948.06zM2033.59 1496.56L2145.31 1561.06L2145.31 1690.06L2033.59 1754.56L1921.87 1690.06L1921.87 1561.06zM2368.75 142.06L2480.47 206.56L2480.47 335.56L2368.75 400.06L2257.03 335.56L2257.03 206.56zM2257.03 1109.56L2368.75 1174.06L2368.75 1303.06L2257.03 1367.56L2145.31 1303.06L2145.31 1174.06zM2368.75 1690.06L2480.47 1754.56L2480.47 1883.56L2368.75 1948.06L2257.03 1883.56L2257.03 1754.56zM2368.75 2077.06L2480.47 2141.56L2480.47 2270.56L2368.75 2335.06L2257.03 2270.56L2257.03 2141.56zM2480.47 335.56L2592.19 400.06L2592.19 529.06L2480.47 593.56L2368.75 529.06L2368.75 400.06zM2480.47 1109.56L2592.19 1174.06L2592.19 1303.06L2480.47 1367.56L2368.75 1303.06L2368.75 1174.06zM2592.19 2077.06L2703.91 2141.56L2703.91 2270.56L2592.19 2335.06L2480.47 2270.56L2480.47 2141.56zM2703.91 335.56L2815.63 400.06L2815.63 529.06L2703.91 593.56L2592.19 529.06L2592.19 400.06zM3039.07 142.06L3150.79 206.56L3150.79 335.56L3039.07 400.06L2927.35 335.56L2927.35 206.56zM2927.35 335.56L3039.07 400.06L3039.07 529.06L2927.35 593.56L2815.63 529.06L2815.63 400.06zM2927.35 722.56L3039.07 787.06L3039.07 916.06L2927.35 980.56L2815.63 916.06L2815.63 787.06zM3262.51 2077.06L3374.23 2141.56L3374.23 2270.56L3262.51 2335.06L3150.79 2270.56L3150.79 2141.56zM3374.23 722.56L3485.95 787.06L3485.95 916.06L3374.23 980.56L3262.51 916.06L3262.51 787.06zM3597.67 335.56L3709.39 400.06L3709.39 529.06L3597.67 593.56L3485.95 529.06L3485.95 400.06zM3597.67 722.56L3709.39 787.06L3709.39 916.06L3597.67 980.56L3485.95 916.06L3485.95 787.06zM3597.67 1109.56L3709.39 1174.06L3709.39 1303.06L3597.67 1367.56L3485.95 1303.06L3485.95 1174.06zM3932.84 529.06L4044.56 593.56L4044.56 722.56L3932.84 787.06L3821.12 722.56L3821.12 593.56zM3821.12 722.56L3932.84 787.06L3932.84 916.06L3821.12 980.56L3709.39 916.06L3709.39 787.06zM3821.12 1496.56L3932.84 1561.06L3932.84 1690.06L3821.12 1754.56L3709.39 1690.06L3709.39 1561.06z" stroke="url(&quot;#SvgjsLinearGradient7102&quot;)" stroke-width="2"></path>
        <path d="M229.2 1609.98L363.44 1687.48L363.44 1842.48L229.2 1919.98L94.96 1842.48L94.96 1687.48zM363.44 -17.52L497.67 59.98L497.67 214.98L363.44 292.48L229.2 214.98L229.2 59.98zM497.67 214.98L631.91 292.48L631.91 447.48L497.67 524.98L363.44 447.48L363.44 292.48zM363.44 912.48L497.67 989.98L497.67 1144.98L363.44 1222.48L229.2 1144.98L229.2 989.98zM363.44 1377.48L497.67 1454.98L497.67 1609.98L363.44 1687.48L229.2 1609.98L229.2 1454.98zM363.44 1842.48L497.67 1919.98L497.67 2074.98L363.44 2152.48L229.2 2074.98L229.2 1919.98zM497.67 2074.98L631.91 2152.48L631.91 2307.48L497.67 2384.98L363.44 2307.48L363.44 2152.48zM631.91 -17.52L766.15 59.98L766.15 214.98L631.91 292.48L497.67 214.98L497.67 59.98zM631.91 447.48L766.15 524.98L766.15 679.98L631.91 757.48L497.67 679.98L497.67 524.98zM766.15 679.98L900.39 757.48L900.39 912.48L766.15 989.98L631.91 912.48L631.91 757.48zM900.39 447.48L1034.62 524.98L1034.62 679.98L900.39 757.48L766.15 679.98L766.15 524.98zM1034.62 1144.98L1168.86 1222.48L1168.86 1377.48L1034.62 1454.98L900.39 1377.48L900.39 1222.48zM1034.62 1609.98L1168.86 1687.48L1168.86 1842.48L1034.62 1919.98L900.39 1842.48L900.39 1687.48zM1303.1 679.98L1437.34 757.48L1437.34 912.48L1303.1 989.98L1168.86 912.48L1168.86 757.48zM1168.86 1377.48L1303.1 1454.98L1303.1 1609.98L1168.86 1687.48L1034.62 1609.98L1034.62 1454.98zM1168.86 1842.48L1303.1 1919.98L1303.1 2074.98L1168.86 2152.48L1034.62 2074.98L1034.62 1919.98zM1437.34 -17.52L1571.58 59.98L1571.58 214.98L1437.34 292.48L1303.1 214.98L1303.1 59.98zM1571.58 214.98L1705.81 292.48L1705.81 447.48L1571.58 524.98L1437.34 447.48L1437.34 292.48zM1437.34 447.48L1571.58 524.98L1571.58 679.98L1437.34 757.48L1303.1 679.98L1303.1 524.98zM1571.58 679.98L1705.81 757.48L1705.81 912.48L1571.58 989.98L1437.34 912.48L1437.34 757.48zM1571.58 1144.98L1705.81 1222.48L1705.81 1377.48L1571.58 1454.98L1437.34 1377.48L1437.34 1222.48zM1571.58 1609.98L1705.81 1687.48L1705.81 1842.48L1571.58 1919.98L1437.34 1842.48L1437.34 1687.48zM1571.58 2074.98L1705.81 2152.48L1705.81 2307.48L1571.58 2384.98L1437.34 2307.48L1437.34 2152.48zM1840.05 214.98L1974.29 292.48L1974.29 447.48L1840.05 524.98L1705.81 447.48L1705.81 292.48zM1705.81 447.48L1840.05 524.98L1840.05 679.98L1705.81 757.48L1571.58 679.98L1571.58 524.98zM1840.05 679.98L1974.29 757.48L1974.29 912.48L1840.05 989.98L1705.81 912.48L1705.81 757.48zM1705.81 912.48L1840.05 989.98L1840.05 1144.98L1705.81 1222.48L1571.58 1144.98L1571.58 989.98zM1705.81 1842.48L1840.05 1919.98L1840.05 2074.98L1705.81 2152.48L1571.58 2074.98L1571.58 1919.98zM1840.05 2074.98L1974.29 2152.48L1974.29 2307.48L1840.05 2384.98L1705.81 2307.48L1705.81 2152.48zM2108.53 214.98L2242.76 292.48L2242.76 447.48L2108.53 524.98L1974.29 447.48L1974.29 292.48zM2108.53 679.98L2242.76 757.48L2242.76 912.48L2108.53 989.98L1974.29 912.48L1974.29 757.48zM1974.29 912.48L2108.53 989.98L2108.53 1144.98L1974.29 1222.48L1840.05 1144.98L1840.05 989.98zM1974.29 1377.48L2108.53 1454.98L2108.53 1609.98L1974.29 1687.48L1840.05 1609.98L1840.05 1454.98zM2108.53 2074.98L2242.76 2152.48L2242.76 2307.48L2108.53 2384.98L1974.29 2307.48L1974.29 2152.48zM2377 214.98L2511.24 292.48L2511.24 447.48L2377 524.98L2242.76 447.48L2242.76 292.48zM2377 679.98L2511.24 757.48L2511.24 912.48L2377 989.98L2242.76 912.48L2242.76 757.48zM2242.76 912.48L2377 989.98L2377 1144.98L2242.76 1222.48L2108.53 1144.98L2108.53 989.98zM2377 1144.98L2511.24 1222.48L2511.24 1377.48L2377 1454.98L2242.76 1377.48L2242.76 1222.48zM2377 1609.98L2511.24 1687.48L2511.24 1842.48L2377 1919.98L2242.76 1842.48L2242.76 1687.48zM2645.48 214.98L2779.72 292.48L2779.72 447.48L2645.48 524.98L2511.24 447.48L2511.24 292.48zM2511.24 447.48L2645.48 524.98L2645.48 679.98L2511.24 757.48L2377 679.98L2377 524.98zM2645.48 679.98L2779.72 757.48L2779.72 912.48L2645.48 989.98L2511.24 912.48L2511.24 757.48zM2511.24 912.48L2645.48 989.98L2645.48 1144.98L2511.24 1222.48L2377 1144.98L2377 989.98zM2511.24 1377.48L2645.48 1454.98L2645.48 1609.98L2511.24 1687.48L2377 1609.98L2377 1454.98zM2645.48 1609.98L2779.72 1687.48L2779.72 1842.48L2645.48 1919.98L2511.24 1842.48L2511.24 1687.48zM2511.24 1842.48L2645.48 1919.98L2645.48 2074.98L2511.24 2152.48L2377 2074.98L2377 1919.98zM2779.72 -17.52L2913.95 59.98L2913.95 214.98L2779.72 292.48L2645.48 214.98L2645.48 59.98zM2913.95 679.98L3048.19 757.48L3048.19 912.48L2913.95 989.98L2779.72 912.48L2779.72 757.48zM2779.72 912.48L2913.95 989.98L2913.95 1144.98L2779.72 1222.48L2645.48 1144.98L2645.48 989.98zM3048.19 -17.52L3182.43 59.98L3182.43 214.98L3048.19 292.48L2913.95 214.98L2913.95 59.98zM3182.43 214.98L3316.67 292.48L3316.67 447.48L3182.43 524.98L3048.19 447.48L3048.19 292.48zM3048.19 912.48L3182.43 989.98L3182.43 1144.98L3048.19 1222.48L2913.95 1144.98L2913.95 989.98zM3182.43 1609.98L3316.67 1687.48L3316.67 1842.48L3182.43 1919.98L3048.19 1842.48L3048.19 1687.48zM3182.43 2074.98L3316.67 2152.48L3316.67 2307.48L3182.43 2384.98L3048.19 2307.48L3048.19 2152.48zM3316.67 912.48L3450.9 989.98L3450.9 1144.98L3316.67 1222.48L3182.43 1144.98L3182.43 989.98zM3450.9 1144.98L3585.14 1222.48L3585.14 1377.48L3450.9 1454.98L3316.67 1377.48L3316.67 1222.48zM3316.67 1377.48L3450.9 1454.98L3450.9 1609.98L3316.67 1687.48L3182.43 1609.98L3182.43 1454.98zM3585.14 -17.52L3719.38 59.98L3719.38 214.98L3585.14 292.48L3450.9 214.98L3450.9 59.98zM3719.38 214.98L3853.62 292.48L3853.62 447.48L3719.38 524.98L3585.14 447.48L3585.14 292.48zM3585.14 447.48L3719.38 524.98L3719.38 679.98L3585.14 757.48L3450.9 679.98L3450.9 524.98zM3719.38 1609.98L3853.62 1687.48L3853.62 1842.48L3719.38 1919.98L3585.14 1842.48L3585.14 1687.48zM3853.62 -17.52L3987.85 59.98L3987.85 214.98L3853.62 292.48L3719.38 214.98L3719.38 59.98zM3987.85 214.98L4122.09 292.48L4122.09 447.48L3987.85 524.98L3853.62 447.48L3853.62 292.48zM3853.62 1842.48L3987.85 1919.98L3987.85 2074.98L3853.62 2152.48L3719.38 2074.98L3719.38 1919.98z" stroke="url(&quot;#SvgjsLinearGradient7103&quot;)" stroke-width="2"></path>
        <path d="M52.58 170.22L117.53 207.72L117.53 282.72L52.58 320.22L-12.37 282.72L-12.37 207.72zM117.53 507.72L182.49 545.22L182.49 620.22L117.53 657.72L52.58 620.22L52.58 545.22zM52.58 620.22L117.53 657.72L117.53 732.72L52.58 770.22L-12.37 732.72L-12.37 657.72zM117.53 957.72L182.49 995.22L182.49 1070.22L117.53 1107.72L52.58 1070.22L52.58 995.22zM117.53 1182.72L182.49 1220.22L182.49 1295.22L117.53 1332.72L52.58 1295.22L52.58 1220.22zM52.58 1295.22L117.53 1332.72L117.53 1407.72L52.58 1445.22L-12.37 1407.72L-12.37 1332.72zM117.53 1407.72L182.49 1445.22L182.49 1520.22L117.53 1557.72L52.58 1520.22L52.58 1445.22zM52.58 1970.22L117.53 2007.72L117.53 2082.72L52.58 2120.22L-12.37 2082.72L-12.37 2007.72zM117.53 2082.72L182.49 2120.22L182.49 2195.22L117.53 2232.72L52.58 2195.22L52.58 2120.22zM182.49 -54.78L247.44 -17.28L247.44 57.72L182.49 95.22L117.53 57.72L117.53 -17.28zM182.49 620.22L247.44 657.72L247.44 732.72L182.49 770.22L117.53 732.72L117.53 657.72zM247.44 1632.72L312.39 1670.22L312.39 1745.22L247.44 1782.72L182.49 1745.22L182.49 1670.22zM182.49 1970.22L247.44 2007.72L247.44 2082.72L182.49 2120.22L117.53 2082.72L117.53 2007.72zM312.39 -54.78L377.35 -17.28L377.35 57.72L312.39 95.22L247.44 57.72L247.44 -17.28zM377.35 57.72L442.3 95.22L442.3 170.22L377.35 207.72L312.39 170.22L312.39 95.22zM377.35 507.72L442.3 545.22L442.3 620.22L377.35 657.72L312.39 620.22L312.39 545.22zM312.39 620.22L377.35 657.72L377.35 732.72L312.39 770.22L247.44 732.72L247.44 657.72zM377.35 1632.72L442.3 1670.22L442.3 1745.22L377.35 1782.72L312.39 1745.22L312.39 1670.22zM312.39 1970.22L377.35 2007.72L377.35 2082.72L312.39 2120.22L247.44 2082.72L247.44 2007.72zM442.3 395.22L507.26 432.72L507.26 507.72L442.3 545.22L377.35 507.72L377.35 432.72zM507.26 507.72L572.21 545.22L572.21 620.22L507.26 657.72L442.3 620.22L442.3 545.22zM442.3 845.22L507.26 882.72L507.26 957.72L442.3 995.22L377.35 957.72L377.35 882.72zM442.3 1070.22L507.26 1107.72L507.26 1182.72L442.3 1220.22L377.35 1182.72L377.35 1107.72zM442.3 1295.22L507.26 1332.72L507.26 1407.72L442.3 1445.22L377.35 1407.72L377.35 1332.72zM442.3 1520.22L507.26 1557.72L507.26 1632.72L442.3 1670.22L377.35 1632.72L377.35 1557.72zM572.21 395.22L637.16 432.72L637.16 507.72L572.21 545.22L507.26 507.72L507.26 432.72zM572.21 620.22L637.16 657.72L637.16 732.72L572.21 770.22L507.26 732.72L507.26 657.72zM637.16 957.72L702.12 995.22L702.12 1070.22L637.16 1107.72L572.21 1070.22L572.21 995.22zM572.21 1295.22L637.16 1332.72L637.16 1407.72L572.21 1445.22L507.26 1407.72L507.26 1332.72zM572.21 1520.22L637.16 1557.72L637.16 1632.72L572.21 1670.22L507.26 1632.72L507.26 1557.72zM637.16 1857.72L702.12 1895.22L702.12 1970.22L637.16 2007.72L572.21 1970.22L572.21 1895.22zM767.07 57.72L832.03 95.22L832.03 170.22L767.07 207.72L702.12 170.22L702.12 95.22zM702.12 170.22L767.07 207.72L767.07 282.72L702.12 320.22L637.16 282.72L637.16 207.72zM767.07 507.72L832.03 545.22L832.03 620.22L767.07 657.72L702.12 620.22L702.12 545.22zM702.12 845.22L767.07 882.72L767.07 957.72L702.12 995.22L637.16 957.72L637.16 882.72zM702.12 1070.22L767.07 1107.72L767.07 1182.72L702.12 1220.22L637.16 1182.72L637.16 1107.72zM702.12 1295.22L767.07 1332.72L767.07 1407.72L702.12 1445.22L637.16 1407.72L637.16 1332.72zM702.12 1970.22L767.07 2007.72L767.07 2082.72L702.12 2120.22L637.16 2082.72L637.16 2007.72zM896.98 57.72L961.93 95.22L961.93 170.22L896.98 207.72L832.02 170.22L832.02 95.22zM832.02 395.22L896.98 432.72L896.98 507.72L832.02 545.22L767.07 507.72L767.07 432.72zM832.02 620.22L896.98 657.72L896.98 732.72L832.02 770.22L767.07 732.72L767.07 657.72zM896.98 732.72L961.93 770.22L961.93 845.22L896.98 882.72L832.02 845.22L832.02 770.22zM832.02 1070.22L896.98 1107.72L896.98 1182.72L832.02 1220.22L767.07 1182.72L767.07 1107.72zM832.02 1295.22L896.98 1332.72L896.98 1407.72L832.02 1445.22L767.07 1407.72L767.07 1332.72zM832.02 1745.22L896.98 1782.72L896.98 1857.72L832.02 1895.22L767.07 1857.72L767.07 1782.72zM1026.89 57.72L1091.84 95.22L1091.84 170.22L1026.89 207.72L961.93 170.22L961.93 95.22zM961.93 1070.22L1026.89 1107.72L1026.89 1182.72L961.93 1220.22L896.98 1182.72L896.98 1107.72zM1026.89 1632.72L1091.84 1670.22L1091.84 1745.22L1026.89 1782.72L961.93 1745.22L961.93 1670.22zM961.93 1745.22L1026.89 1782.72L1026.89 1857.72L961.93 1895.22L896.98 1857.72L896.98 1782.72zM1091.84 -54.78L1156.79 -17.28L1156.79 57.72L1091.84 95.22L1026.89 57.72L1026.89 -17.28zM1091.84 170.22L1156.79 207.72L1156.79 282.72L1091.84 320.22L1026.89 282.72L1026.89 207.72zM1091.84 845.22L1156.79 882.72L1156.79 957.72L1091.84 995.22L1026.89 957.72L1026.89 882.72zM1156.79 957.72L1221.75 995.22L1221.75 1070.22L1156.79 1107.72L1091.84 1070.22L1091.84 995.22zM1156.79 1182.72L1221.75 1220.22L1221.75 1295.22L1156.79 1332.72L1091.84 1295.22L1091.84 1220.22zM1156.79 1407.72L1221.75 1445.22L1221.75 1520.22L1156.79 1557.72L1091.84 1520.22L1091.84 1445.22zM1091.84 1520.22L1156.79 1557.72L1156.79 1632.72L1091.84 1670.22L1026.89 1632.72L1026.89 1557.72zM1156.79 1857.72L1221.75 1895.22L1221.75 1970.22L1156.79 2007.72L1091.84 1970.22L1091.84 1895.22zM1221.75 845.22L1286.7 882.72L1286.7 957.72L1221.75 995.22L1156.79 957.72L1156.79 882.72zM1221.75 1070.22L1286.7 1107.72L1286.7 1182.72L1221.75 1220.22L1156.79 1182.72L1156.79 1107.72zM1286.7 1182.72L1351.65 1220.22L1351.65 1295.22L1286.7 1332.72L1221.75 1295.22L1221.75 1220.22zM1286.7 1407.72L1351.65 1445.22L1351.65 1520.22L1286.7 1557.72L1221.75 1520.22L1221.75 1445.22zM1221.75 1520.22L1286.7 1557.72L1286.7 1632.72L1221.75 1670.22L1156.79 1632.72L1156.79 1557.72zM1221.75 1970.22L1286.7 2007.72L1286.7 2082.72L1221.75 2120.22L1156.79 2082.72L1156.79 2007.72zM1351.65 -54.78L1416.61 -17.28L1416.61 57.72L1351.65 95.22L1286.7 57.72L1286.7 -17.28zM1416.61 57.72L1481.56 95.22L1481.56 170.22L1416.61 207.72L1351.65 170.22L1351.65 95.22zM1416.61 507.72L1481.56 545.22L1481.56 620.22L1416.61 657.72L1351.65 620.22L1351.65 545.22zM1416.61 732.72L1481.56 770.22L1481.56 845.22L1416.61 882.72L1351.65 845.22L1351.65 770.22zM1416.61 1632.72L1481.56 1670.22L1481.56 1745.22L1416.61 1782.72L1351.65 1745.22L1351.65 1670.22zM1351.65 1745.22L1416.61 1782.72L1416.61 1857.72L1351.65 1895.22L1286.7 1857.72L1286.7 1782.72zM1416.61 1857.72L1481.56 1895.22L1481.56 1970.22L1416.61 2007.72L1351.65 1970.22L1351.65 1895.22zM1351.65 1970.22L1416.61 2007.72L1416.61 2082.72L1351.65 2120.22L1286.7 2082.72L1286.7 2007.72zM1416.61 2082.72L1481.56 2120.22L1481.56 2195.22L1416.61 2232.72L1351.65 2195.22L1351.65 2120.22zM1481.56 -54.78L1546.52 -17.28L1546.52 57.72L1481.56 95.22L1416.61 57.72L1416.61 -17.28zM1481.56 1745.22L1546.52 1782.72L1546.52 1857.72L1481.56 1895.22L1416.61 1857.72L1416.61 1782.72zM1481.56 1970.22L1546.52 2007.72L1546.52 2082.72L1481.56 2120.22L1416.61 2082.72L1416.61 2007.72zM1611.47 -54.78L1676.42 -17.28L1676.42 57.72L1611.47 95.22L1546.52 57.72L1546.52 -17.28zM1676.42 282.72L1741.38 320.22L1741.38 395.22L1676.42 432.72L1611.47 395.22L1611.47 320.22zM1611.47 620.22L1676.42 657.72L1676.42 732.72L1611.47 770.22L1546.52 732.72L1546.52 657.72zM1676.42 957.72L1741.38 995.22L1741.38 1070.22L1676.42 1107.72L1611.47 1070.22L1611.47 995.22zM1611.47 1295.22L1676.42 1332.72L1676.42 1407.72L1611.47 1445.22L1546.52 1407.72L1546.52 1332.72zM1676.42 1632.72L1741.38 1670.22L1741.38 1745.22L1676.42 1782.72L1611.47 1745.22L1611.47 1670.22zM1611.47 1745.22L1676.42 1782.72L1676.42 1857.72L1611.47 1895.22L1546.52 1857.72L1546.52 1782.72zM1741.38 170.22L1806.33 207.72L1806.33 282.72L1741.38 320.22L1676.42 282.72L1676.42 207.72zM1806.33 507.72L1871.28 545.22L1871.28 620.22L1806.33 657.72L1741.38 620.22L1741.38 545.22zM1741.38 620.22L1806.33 657.72L1806.33 732.72L1741.38 770.22L1676.42 732.72L1676.42 657.72zM1741.38 845.22L1806.33 882.72L1806.33 957.72L1741.38 995.22L1676.42 957.72L1676.42 882.72zM1741.38 1070.22L1806.33 1107.72L1806.33 1182.72L1741.38 1220.22L1676.42 1182.72L1676.42 1107.72zM1741.38 1295.22L1806.33 1332.72L1806.33 1407.72L1741.38 1445.22L1676.42 1407.72L1676.42 1332.72zM1936.24 507.72L2001.19 545.22L2001.19 620.22L1936.24 657.72L1871.28 620.22L1871.28 545.22zM1936.24 1407.72L2001.19 1445.22L2001.19 1520.22L1936.24 1557.72L1871.28 1520.22L1871.28 1445.22zM1871.28 1745.22L1936.24 1782.72L1936.24 1857.72L1871.28 1895.22L1806.33 1857.72L1806.33 1782.72zM1871.28 1970.22L1936.24 2007.72L1936.24 2082.72L1871.28 2120.22L1806.33 2082.72L1806.33 2007.72zM2001.19 170.22L2066.15 207.72L2066.15 282.72L2001.19 320.22L1936.24 282.72L1936.24 207.72zM2001.19 395.22L2066.15 432.72L2066.15 507.72L2001.19 545.22L1936.24 507.72L1936.24 432.72zM2066.15 957.72L2131.1 995.22L2131.1 1070.22L2066.15 1107.72L2001.19 1070.22L2001.19 995.22zM2001.19 1295.22L2066.15 1332.72L2066.15 1407.72L2001.19 1445.22L1936.24 1407.72L1936.24 1332.72zM2001.19 1745.22L2066.15 1782.72L2066.15 1857.72L2001.19 1895.22L1936.24 1857.72L1936.24 1782.72zM2066.15 2082.72L2131.1 2120.22L2131.1 2195.22L2066.15 2232.72L2001.19 2195.22L2001.19 2120.22zM2131.1 845.22L2196.05 882.72L2196.05 957.72L2131.1 995.22L2066.15 957.72L2066.15 882.72zM2196.05 957.72L2261.01 995.22L2261.01 1070.22L2196.05 1107.72L2131.1 1070.22L2131.1 995.22zM2131.1 1070.22L2196.05 1107.72L2196.05 1182.72L2131.1 1220.22L2066.15 1182.72L2066.15 1107.72zM2196.05 2082.72L2261.01 2120.22L2261.01 2195.22L2196.05 2232.72L2131.1 2195.22L2131.1 2120.22zM2261.01 620.22L2325.96 657.72L2325.96 732.72L2261.01 770.22L2196.05 732.72L2196.05 657.72zM2325.96 732.72L2390.91 770.22L2390.91 845.22L2325.96 882.72L2261.01 845.22L2261.01 770.22zM2261.01 1070.22L2325.96 1107.72L2325.96 1182.72L2261.01 1220.22L2196.05 1182.72L2196.05 1107.72zM2261.01 1520.22L2325.96 1557.72L2325.96 1632.72L2261.01 1670.22L2196.05 1632.72L2196.05 1557.72zM2455.87 507.72L2520.82 545.22L2520.82 620.22L2455.87 657.72L2390.91 620.22L2390.91 545.22zM2390.91 845.22L2455.87 882.72L2455.87 957.72L2390.91 995.22L2325.96 957.72L2325.96 882.72zM2455.87 1407.72L2520.82 1445.22L2520.82 1520.22L2455.87 1557.72L2390.91 1520.22L2390.91 1445.22zM2455.87 1632.72L2520.82 1670.22L2520.82 1745.22L2455.87 1782.72L2390.91 1745.22L2390.91 1670.22zM2455.87 1857.72L2520.82 1895.22L2520.82 1970.22L2455.87 2007.72L2390.91 1970.22L2390.91 1895.22zM2520.82 395.22L2585.78 432.72L2585.78 507.72L2520.82 545.22L2455.87 507.72L2455.87 432.72zM2520.82 1070.22L2585.78 1107.72L2585.78 1182.72L2520.82 1220.22L2455.87 1182.72L2455.87 1107.72zM2585.78 1182.72L2650.73 1220.22L2650.73 1295.22L2585.78 1332.72L2520.82 1295.22L2520.82 1220.22zM2585.78 1857.72L2650.73 1895.22L2650.73 1970.22L2585.78 2007.72L2520.82 1970.22L2520.82 1895.22zM2520.82 1970.22L2585.78 2007.72L2585.78 2082.72L2520.82 2120.22L2455.87 2082.72L2455.87 2007.72zM2650.73 170.22L2715.68 207.72L2715.68 282.72L2650.73 320.22L2585.78 282.72L2585.78 207.72zM2650.73 395.22L2715.68 432.72L2715.68 507.72L2650.73 545.22L2585.78 507.72L2585.78 432.72zM2715.68 507.72L2780.64 545.22L2780.64 620.22L2715.68 657.72L2650.73 620.22L2650.73 545.22zM2715.68 957.72L2780.64 995.22L2780.64 1070.22L2715.68 1107.72L2650.73 1070.22L2650.73 995.22zM2715.68 1182.72L2780.64 1220.22L2780.64 1295.22L2715.68 1332.72L2650.73 1295.22L2650.73 1220.22zM2650.73 1295.22L2715.68 1332.72L2715.68 1407.72L2650.73 1445.22L2585.78 1407.72L2585.78 1332.72zM2715.68 1632.72L2780.64 1670.22L2780.64 1745.22L2715.68 1782.72L2650.73 1745.22L2650.73 1670.22zM2780.64 -54.78L2845.59 -17.28L2845.59 57.72L2780.64 95.22L2715.68 57.72L2715.68 -17.28zM2780.64 170.22L2845.59 207.72L2845.59 282.72L2780.64 320.22L2715.68 282.72L2715.68 207.72zM2780.64 1295.22L2845.59 1332.72L2845.59 1407.72L2780.64 1445.22L2715.68 1407.72L2715.68 1332.72zM2780.64 1520.22L2845.59 1557.72L2845.59 1632.72L2780.64 1670.22L2715.68 1632.72L2715.68 1557.72zM2845.59 2082.72L2910.55 2120.22L2910.55 2195.22L2845.59 2232.72L2780.64 2195.22L2780.64 2120.22zM2910.55 -54.78L2975.5 -17.28L2975.5 57.72L2910.55 95.22L2845.59 57.72L2845.59 -17.28zM2975.5 57.72L3040.45 95.22L3040.45 170.22L2975.5 207.72L2910.55 170.22L2910.55 95.22zM2975.5 282.72L3040.45 320.22L3040.45 395.22L2975.5 432.72L2910.55 395.22L2910.55 320.22zM2975.5 732.72L3040.45 770.22L3040.45 845.22L2975.5 882.72L2910.55 845.22L2910.55 770.22zM3105.41 507.72L3170.36 545.22L3170.36 620.22L3105.41 657.72L3040.45 620.22L3040.45 545.22zM3040.45 1070.22L3105.41 1107.72L3105.41 1182.72L3040.45 1220.22L2975.5 1182.72L2975.5 1107.72zM3105.41 1632.72L3170.36 1670.22L3170.36 1745.22L3105.41 1782.72L3040.45 1745.22L3040.45 1670.22zM3105.41 1857.72L3170.36 1895.22L3170.36 1970.22L3105.41 2007.72L3040.45 1970.22L3040.45 1895.22zM3105.41 2082.72L3170.36 2120.22L3170.36 2195.22L3105.41 2232.72L3040.45 2195.22L3040.45 2120.22zM3235.31 57.72L3300.27 95.22L3300.27 170.22L3235.31 207.72L3170.36 170.22L3170.36 95.22zM3170.36 395.22L3235.31 432.72L3235.31 507.72L3170.36 545.22L3105.41 507.72L3105.41 432.72zM3235.31 507.72L3300.27 545.22L3300.27 620.22L3235.31 657.72L3170.36 620.22L3170.36 545.22zM3235.31 1182.72L3300.27 1220.22L3300.27 1295.22L3235.31 1332.72L3170.36 1295.22L3170.36 1220.22zM3170.36 1295.22L3235.31 1332.72L3235.31 1407.72L3170.36 1445.22L3105.41 1407.72L3105.41 1332.72zM3300.27 170.22L3365.22 207.72L3365.22 282.72L3300.27 320.22L3235.31 282.72L3235.31 207.72zM3365.22 282.72L3430.18 320.22L3430.18 395.22L3365.22 432.72L3300.27 395.22L3300.27 320.22zM3300.27 1295.22L3365.22 1332.72L3365.22 1407.72L3300.27 1445.22L3235.31 1407.72L3235.31 1332.72zM3365.22 1857.72L3430.18 1895.22L3430.18 1970.22L3365.22 2007.72L3300.27 1970.22L3300.27 1895.22zM3300.27 1970.22L3365.22 2007.72L3365.22 2082.72L3300.27 2120.22L3235.31 2082.72L3235.31 2007.72zM3430.17 -54.78L3495.13 -17.28L3495.13 57.72L3430.17 95.22L3365.22 57.72L3365.22 -17.28zM3430.17 170.22L3495.13 207.72L3495.13 282.72L3430.17 320.22L3365.22 282.72L3365.22 207.72zM3495.13 507.72L3560.08 545.22L3560.08 620.22L3495.13 657.72L3430.17 620.22L3430.17 545.22zM3495.13 732.72L3560.08 770.22L3560.08 845.22L3495.13 882.72L3430.17 845.22L3430.17 770.22zM3495.13 957.72L3560.08 995.22L3560.08 1070.22L3495.13 1107.72L3430.17 1070.22L3430.17 995.22zM3430.17 1070.22L3495.13 1107.72L3495.13 1182.72L3430.17 1220.22L3365.22 1182.72L3365.22 1107.72zM3430.17 1295.22L3495.13 1332.72L3495.13 1407.72L3430.17 1445.22L3365.22 1407.72L3365.22 1332.72zM3495.13 1407.72L3560.08 1445.22L3560.08 1520.22L3495.13 1557.72L3430.17 1520.22L3430.17 1445.22zM3430.17 1520.22L3495.13 1557.72L3495.13 1632.72L3430.17 1670.22L3365.22 1632.72L3365.22 1557.72zM3495.13 2082.72L3560.08 2120.22L3560.08 2195.22L3495.13 2232.72L3430.17 2195.22L3430.17 2120.22zM3560.08 -54.78L3625.04 -17.28L3625.04 57.72L3560.08 95.22L3495.13 57.72L3495.13 -17.28zM3625.04 57.72L3689.99 95.22L3689.99 170.22L3625.04 207.72L3560.08 170.22L3560.08 95.22zM3625.04 1857.72L3689.99 1895.22L3689.99 1970.22L3625.04 2007.72L3560.08 1970.22L3560.08 1895.22zM3754.94 57.72L3819.9 95.22L3819.9 170.22L3754.94 207.72L3689.99 170.22L3689.99 95.22zM3689.99 170.22L3754.94 207.72L3754.94 282.72L3689.99 320.22L3625.04 282.72L3625.04 207.72zM3754.94 282.72L3819.9 320.22L3819.9 395.22L3754.94 432.72L3689.99 395.22L3689.99 320.22zM3689.99 845.22L3754.94 882.72L3754.94 957.72L3689.99 995.22L3625.04 957.72L3625.04 882.72zM3754.94 957.72L3819.9 995.22L3819.9 1070.22L3754.94 1107.72L3689.99 1070.22L3689.99 995.22zM3689.99 1070.22L3754.94 1107.72L3754.94 1182.72L3689.99 1220.22L3625.04 1182.72L3625.04 1107.72zM3689.99 1520.22L3754.94 1557.72L3754.94 1632.72L3689.99 1670.22L3625.04 1632.72L3625.04 1557.72zM3689.99 1970.22L3754.94 2007.72L3754.94 2082.72L3689.99 2120.22L3625.04 2082.72L3625.04 2007.72zM3754.94 2082.72L3819.9 2120.22L3819.9 2195.22L3754.94 2232.72L3689.99 2195.22L3689.99 2120.22zM3819.9 -54.78L3884.85 -17.28L3884.85 57.72L3819.9 95.22L3754.94 57.72L3754.94 -17.28zM3819.9 170.22L3884.85 207.72L3884.85 282.72L3819.9 320.22L3754.94 282.72L3754.94 207.72zM3819.9 1520.22L3884.85 1557.72L3884.85 1632.72L3819.9 1670.22L3754.94 1632.72L3754.94 1557.72zM3884.85 1632.72L3949.81 1670.22L3949.81 1745.22L3884.85 1782.72L3819.9 1745.22L3819.9 1670.22zM3884.85 2082.72L3949.81 2120.22L3949.81 2195.22L3884.85 2232.72L3819.9 2195.22L3819.9 2120.22z" stroke="url(&quot;#SvgjsLinearGradient7104&quot;)" stroke-width="2"></path>
    </g>
    <defs>
        <mask id="SvgjsMask7100">
            <rect width="3840" height="2160" fill="#ffffff"></rect>
        </mask>
        <linearGradient x1="50%" y1="0%" x2="50%" y2="100%" gradientUnits="userSpaceOnUse" id="SvgjsLinearGradient7101">
            <stop stop-color="rgba(0, 0, 0, 1)" offset="0.7"></stop>
            <stop stop-color="rgba(0, 22, 255, 0)" offset="1"></stop>
        </linearGradient>
        <linearGradient x1="1920" y1="0" x2="1920" y2="2160" gradientUnits="userSpaceOnUse" id="SvgjsLinearGradient7102">
            <stop stop-color="rgba(255, 184, 76, 1)" offset="0.7"></stop>
            <stop stop-color="rgba(0, 69, 158, 0)" offset="1"></stop>
        </linearGradient>
        <linearGradient x1="1920" y1="0" x2="1920" y2="2160" gradientUnits="userSpaceOnUse" id="SvgjsLinearGradient7103">
            <stop stop-color="rgba(158, 0, 129, 1)" offset="0.7"></stop>
            <stop stop-color="rgba(3, 48, 93, 0)" offset="1"></stop>
        </linearGradient>
        <linearGradient x1="1920" y1="0" x2="1920" y2="2160" gradientUnits="userSpaceOnUse" id="SvgjsLinearGradient7104">
            <stop stop-color="rgba(44, 211, 224, 1)" offset="0.69"></stop>
            <stop stop-color="rgba(44, 211, 225, 0)" offset="1"></stop>
        </linearGradient>
    </defs>
</svg>